<svg xmlns="http://www.w3.org/2000/svg" xmlns:xlink="http://www.w3.org/1999/xlink" width="500" zoomAndPan="magnify" viewBox="0 0 375 374.999991" height="500" preserveAspectRatio="xMidYMid meet" version="1.0"><defs><clipPath id="7d2f79b532"><path d="M 3 3.890625 L 372 3.890625 L 372 371 L 3 371 Z M 3 3.890625 " clip-rule="nonzero"/></clipPath><clipPath id="2111b44adb"><path d="M 365.457031 187.5 C 365.457031 168.339844 375 148.003906 369.125 130.75 C 363.105469 112.835938 342.699219 101.824219 331.464844 86.921875 C 320.085938 71.871094 315.386719 49.921875 299.75 38.984375 C 284.261719 28.191406 261.132812 30.613281 242.5625 24.742188 C 224.574219 19.160156 207.46875 3.890625 187.574219 3.890625 C 167.679688 3.890625 150.5 19.085938 132.585938 24.742188 C 114.011719 30.539062 90.8125 28.117188 75.324219 38.984375 C 59.6875 49.921875 54.988281 71.871094 43.609375 86.921875 C 32.300781 101.824219 11.964844 112.835938 5.875 130.75 C 0.0742188 148.003906 9.542969 168.339844 9.542969 187.5 C 9.542969 206.660156 0 226.996094 5.875 244.25 C 11.894531 262.164062 32.300781 273.175781 43.535156 288.078125 C 54.914062 303.128906 59.613281 325.078125 75.25 336.015625 C 90.738281 346.882812 113.867188 344.460938 132.511719 350.257812 C 150.5 355.839844 167.605469 371.109375 187.5 371.109375 C 207.394531 371.109375 224.574219 355.914062 242.488281 350.257812 C 261.0625 344.460938 284.261719 346.882812 299.75 336.015625 C 315.386719 325.078125 320.085938 303.128906 331.464844 288.078125 C 342.769531 273.175781 363.105469 262.164062 369.125 244.25 C 375 226.921875 365.457031 206.585938 365.457031 187.5 " clip-rule="nonzero"/></clipPath><clipPath id="5bb30b4764"><path d="M 215.226562 250.332031 L 294 250.332031 L 294 298.242188 L 215.226562 298.242188 Z M 215.226562 250.332031 " clip-rule="nonzero"/></clipPath><clipPath id="d795618d39"><path d="M 104 46.070312 L 261 46.070312 L 261 195 L 104 195 Z M 104 46.070312 " clip-rule="nonzero"/></clipPath></defs><g clip-path="url(#7d2f79b532)"><g clip-path="url(#2111b44adb)"><path fill="#c2c5aa" d="M 0 3.890625 L 375.148438 3.890625 L 375.148438 370.960938 L 0 370.960938 Z M 0 3.890625 " fill-opacity="1" fill-rule="nonzero"/></g></g><path fill="#582f0e" d="M 176.660156 238.503906 C 176.703125 238.503906 176.734375 238.492188 176.753906 238.484375 C 176.894531 238.433594 176.972656 238.277344 176.917969 238.132812 C 176.917969 238.125 176.910156 238.121094 176.90625 238.113281 L 176.40625 238.335938 C 176.4375 238.402344 176.515625 238.503906 176.660156 238.503906 " fill-opacity="1" fill-rule="nonzero"/><path fill="#582f0e" d="M 158.644531 246.128906 C 158.441406 246.214844 158.28125 246.363281 158.191406 246.535156 C 158.097656 246.707031 158.089844 246.890625 158.160156 247.042969 L 162.769531 256.917969 C 162.839844 257.070312 162.988281 257.179688 163.179688 257.222656 C 163.371094 257.265625 163.585938 257.230469 163.78125 257.136719 L 180.441406 248.914062 L 167.300781 242.332031 L 158.644531 246.128906 " fill-opacity="1" fill-rule="nonzero"/><path fill="#582f0e" d="M 314.300781 180.203125 C 313.773438 181.65625 312.167969 182.402344 310.71875 181.875 L 290.816406 174.640625 C 289.367188 174.109375 288.617188 172.507812 289.148438 171.058594 C 289.675781 169.609375 291.28125 168.863281 292.730469 169.390625 L 312.628906 176.625 C 314.082031 177.152344 314.828125 178.757812 314.300781 180.203125 Z M 313.085938 192.546875 C 312.558594 193.996094 310.953125 194.746094 309.503906 194.21875 L 278.675781 183.007812 C 277.222656 182.480469 276.476562 180.875 277.003906 179.429688 C 277.53125 177.976562 279.136719 177.230469 280.589844 177.757812 L 311.414062 188.964844 C 312.867188 189.496094 313.617188 191.097656 313.085938 192.546875 Z M 308.976562 203.835938 C 308.445312 205.285156 306.839844 206.035156 305.390625 205.507812 L 274.5625 194.296875 C 273.109375 193.769531 272.363281 192.167969 272.890625 190.714844 C 273.417969 189.265625 275.023438 188.515625 276.476562 189.046875 L 307.304688 200.253906 C 308.753906 200.78125 309.503906 202.386719 308.976562 203.835938 Z M 293.527344 211.003906 C 293 212.453125 291.394531 213.199219 289.941406 212.671875 L 270.042969 205.4375 C 268.589844 204.910156 267.84375 203.304688 268.371094 201.859375 C 268.898438 200.40625 270.503906 199.65625 271.957031 200.1875 L 291.855469 207.421875 C 293.308594 207.949219 294.054688 209.554688 293.527344 211.003906 Z M 336.683594 198.132812 L 315.050781 151.785156 C 313.597656 148.675781 309.730469 147.742188 306.480469 149.695312 L 251.410156 182.78125 C 248.730469 184.394531 247.621094 187.980469 248.921875 190.769531 L 249.652344 192.335938 C 251.132812 195.828125 253.804688 204.191406 247.097656 207.316406 C 247.066406 207.332031 247.042969 207.34375 247.011719 207.355469 L 186.492188 233.910156 L 199.480469 239.515625 L 250.429688 214.375 C 257.117188 211.289062 261.804688 218.691406 263.527344 222.0625 L 264.285156 223.679688 C 265.585938 226.46875 269.050781 227.925781 272.007812 226.910156 L 332.78125 206.035156 C 336.363281 204.804688 338.136719 201.242188 336.683594 198.132812 " fill-opacity="1" fill-rule="nonzero"/><path fill="#582f0e" d="M 157.789062 261.738281 C 157.429688 261.90625 156.996094 261.746094 156.824219 261.386719 L 150.914062 248.71875 C 150.746094 248.355469 150.902344 247.925781 151.261719 247.753906 L 153.546875 246.691406 C 153.910156 246.527344 154.339844 246.683594 154.507812 247.042969 L 160.425781 259.710938 C 160.589844 260.070312 160.433594 260.503906 160.070312 260.671875 L 157.789062 261.738281 " fill-opacity="1" fill-rule="nonzero"/><path fill="#582f0e" d="M 132.925781 264.808594 C 132.335938 263.542969 132.882812 262.042969 134.148438 261.453125 C 135.414062 260.863281 136.917969 261.410156 137.507812 262.675781 C 138.097656 263.9375 137.550781 265.4375 136.285156 266.03125 C 135.019531 266.621094 133.515625 266.070312 132.925781 264.808594 Z M 86.148438 286.597656 C 85.558594 285.335938 86.105469 283.832031 87.375 283.242188 C 88.640625 282.652344 90.144531 283.199219 90.730469 284.460938 C 91.324219 285.726562 90.777344 287.230469 89.511719 287.820312 C 88.246094 288.410156 86.742188 287.863281 86.148438 286.597656 Z M 131.15625 277.09375 C 132.140625 276.554688 133.125 276.015625 134.109375 275.476562 C 138.625 273.011719 143.152344 270.410156 147.527344 267.890625 L 148.113281 267.554688 C 150.15625 266.378906 152 265.3125 153.828125 264.214844 C 154.140625 264.03125 154.261719 263.636719 154.105469 263.308594 L 147.691406 249.566406 C 147.539062 249.234375 147.160156 249.074219 146.8125 249.191406 C 144.640625 249.945312 142.394531 250.761719 140.585938 251.421875 L 139.9375 251.65625 C 135.199219 253.382812 130.296875 255.175781 125.503906 257.046875 C 124.460938 257.453125 123.414062 257.859375 122.371094 258.265625 C 112.265625 262.199219 101.816406 266.269531 91.914062 271.035156 L 91.246094 271.359375 C 84.859375 274.417969 74.164062 279.542969 75.980469 288.523438 C 76.144531 289.335938 76.386719 290.175781 76.675781 290.949219 C 76.683594 290.96875 76.691406 290.984375 76.699219 291.003906 C 76.703125 291.019531 76.714844 291.03125 76.722656 291.046875 C 77.128906 291.769531 77.617188 292.496094 78.136719 293.144531 C 83.855469 300.304688 94.65625 295.417969 101.113281 292.496094 L 101.789062 292.191406 C 111.808594 287.675781 121.644531 282.296875 131.15625 277.09375 " fill-opacity="1" fill-rule="nonzero"/><path fill="#582f0e" d="M 219.105469 175.746094 C 219.082031 175.828125 219.039062 175.9375 218.984375 176.050781 C 218.984375 176.050781 218.980469 176.054688 218.980469 176.054688 C 216.933594 180.226562 212.457031 182.675781 208.417969 184.484375 C 203.308594 186.769531 197.902344 188.234375 192.34375 188.917969 C 189.164062 189.308594 185.933594 189.496094 182.730469 189.542969 C 174.871094 189.660156 166.527344 188.410156 159.203125 185.515625 C 157.191406 184.71875 155.242188 183.765625 153.394531 182.648438 C 151.25 181.351562 149.203125 179.835938 147.574219 177.917969 C 147.132812 177.394531 146.699219 176.84375 146.355469 176.246094 C 146.171875 175.921875 146.0625 175.617188 146.160156 175.605469 C 146.214844 175.546875 146.417969 175.761719 146.652344 176.003906 C 148.792969 178.1875 151.289062 179.984375 154.003906 181.386719 C 160.148438 184.5625 167.058594 185.980469 173.910156 186.554688 C 176.324219 186.757812 178.742188 186.84375 181.164062 186.847656 C 184.667969 186.859375 188.164062 186.765625 191.65625 186.457031 C 195.140625 186.152344 198.609375 185.609375 202.011719 184.792969 C 204.550781 184.183594 207.042969 183.332031 209.421875 182.257812 C 211.160156 181.476562 212.839844 180.570312 214.417969 179.507812 C 215.984375 178.453125 217.371094 177.238281 218.691406 175.902344 C 218.878906 175.714844 219.035156 175.554688 219.082031 175.605469 C 219.097656 175.613281 219.105469 175.628906 219.113281 175.648438 C 219.117188 175.667969 219.113281 175.707031 219.105469 175.746094 Z M 182.617188 161.09375 C 156.28125 161.09375 140.835938 169.628906 140.835938 169.628906 L 140.367188 175.59375 C 140.367188 175.59375 148.914062 192.78125 182.621094 192.78125 C 216.328125 192.78125 224.871094 175.59375 224.871094 175.59375 L 224.871094 170.914062 C 224.871094 170.914062 208.953125 161.09375 182.617188 161.09375 " fill-opacity="1" fill-rule="nonzero"/><path fill="#582f0e" d="M 177.519531 240.589844 C 176.214844 241.0625 174.769531 240.390625 174.292969 239.085938 C 173.820312 237.78125 174.492188 236.339844 175.796875 235.867188 C 177.105469 235.390625 178.546875 236.0625 179.023438 237.367188 C 179.496094 238.671875 178.824219 240.113281 177.519531 240.589844 Z M 161.371094 233.066406 C 160.066406 233.542969 158.625 232.867188 158.148438 231.5625 C 157.671875 230.261719 158.347656 228.820312 159.652344 228.34375 C 160.957031 227.871094 162.402344 228.542969 162.875 229.847656 C 163.351562 231.152344 162.679688 232.59375 161.371094 233.066406 Z M 137.828125 216.972656 C 131.917969 213.011719 125.667969 208.410156 120.679688 204.472656 C 118.480469 202.742188 116.171875 200.921875 113.871094 199.148438 C 112.957031 198.441406 112.03125 197.714844 111.125 197.003906 C 108.363281 194.832031 105.445312 192.542969 102.269531 190.433594 C 101.683594 190.042969 100.980469 189.566406 100.160156 189.007812 C 94.679688 185.289062 83.976562 178.019531 72.710938 173.316406 C 61.929688 168.816406 53.160156 167.703125 46.875 170.199219 C 48.140625 168.695312 49.40625 167.378906 50.316406 166.847656 C 54.277344 164.542969 58.648438 163.335938 63.277344 163.246094 C 67.320312 163.167969 71.648438 163.933594 76.117188 165.496094 C 82.828125 167.847656 89.953125 172 97.773438 178.027344 C 104.703125 183.363281 110.816406 189.511719 116.492188 195.214844 C 118.992188 197.726562 121.53125 200.28125 124.03125 202.652344 C 125.085938 203.660156 126.09375 204.683594 127.0625 205.675781 C 128.398438 207.042969 129.769531 208.4375 131.242188 209.746094 L 131.640625 210.09375 C 133.871094 212.066406 136.128906 214.054688 138.347656 215.863281 Z M 136.675781 219.445312 C 128.179688 215.105469 118.910156 210.398438 108.972656 206 C 90.324219 197.746094 68.117188 187.785156 43.253906 175.105469 C 46.066406 172.125 50.125 170.679688 55.277344 170.800781 C 60.027344 170.910156 65.71875 172.335938 72.109375 174.972656 C 83.214844 179.550781 93.847656 186.710938 99.292969 190.375 C 100.117188 190.929688 100.824219 191.40625 101.421875 191.800781 C 104.554688 193.859375 107.457031 196.121094 110.207031 198.265625 C 111.117188 198.972656 112.050781 199.699219 112.976562 200.40625 C 115.277344 202.167969 117.59375 203.976562 119.796875 205.699219 C 124.867188 209.660156 131.214844 214.300781 137.21875 218.28125 Z M 115.164062 215.621094 C 112.425781 215.042969 109.554688 214.433594 106.722656 213.800781 C 105.589844 213.550781 104.429688 213.304688 103.304688 213.0625 C 99.886719 212.335938 96.292969 211.566406 92.699219 210.496094 C 92.011719 210.292969 91.1875 210.054688 90.234375 209.78125 C 83.921875 207.96875 71.601562 204.433594 60.949219 198.878906 C 54.820312 195.683594 50.066406 192.242188 46.929688 188.679688 C 43.558594 184.84375 42.050781 180.84375 42.496094 176.808594 C 67.417969 189.386719 89.660156 199.25 108.339844 207.425781 C 118.042969 211.671875 127.132812 216.226562 135.476562 220.441406 C 129.058594 218.5625 122.167969 217.101562 115.164062 215.621094 Z M 134.882812 223.28125 C 132.070312 222.746094 129.097656 222.300781 126.15625 221.859375 L 125.628906 221.78125 C 123.675781 221.488281 121.726562 221.339844 119.816406 221.195312 C 118.4375 221.089844 117.003906 220.984375 115.550781 220.820312 C 112.125 220.429688 108.535156 220.128906 105.003906 219.832031 C 96.980469 219.15625 88.335938 218.425781 79.789062 216.554688 C 70.140625 214.445312 62.378906 211.660156 56.261719 208.035156 C 52.1875 205.621094 48.816406 202.800781 46.28125 199.660156 C 43.375 196.058594 41.488281 191.933594 40.710938 187.421875 C 40.535156 186.386719 40.730469 184.574219 41.070312 182.632812 C 43.195312 189.050781 49.6875 195.042969 60.066406 200.402344 C 70.914062 206 83.371094 209.523438 89.746094 211.324219 C 90.699219 211.589844 91.515625 211.820312 92.195312 212.019531 C 95.851562 213.097656 99.480469 213.855469 102.925781 214.574219 C 104.050781 214.808594 105.207031 215.054688 106.335938 215.296875 C 109.175781 215.917969 112.054688 216.515625 114.792969 217.085938 C 121.726562 218.523438 128.90625 220.097656 135.472656 222.023438 Z M 110.691406 225.234375 C 105.03125 225.367188 99.011719 225.507812 92.949219 225.289062 C 75.074219 224.628906 60.304688 219.101562 49.714844 208.367188 C 46.796875 205.410156 44.46875 201.949219 42.855469 198.183594 C 45.734375 202.570312 49.894531 206.351562 55.234375 209.488281 C 61.554688 213.199219 69.515625 216.019531 79.367188 218.136719 C 88.023438 219.996094 96.722656 220.695312 104.789062 221.34375 C 108.3125 221.625 111.886719 221.914062 115.292969 222.28125 C 116.765625 222.445312 118.214844 222.550781 119.605469 222.648438 C 121.488281 222.785156 123.414062 222.925781 125.320312 223.199219 L 125.851562 223.277344 C 127.542969 223.523438 129.246094 223.773438 130.921875 224.039062 C 124.421875 223.976562 117.359375 225.074219 110.691406 225.234375 Z M 72.164062 160.273438 C 87.199219 161.476562 100.9375 169.226562 112.925781 182.484375 C 116.996094 186.980469 120.757812 191.679688 124.292969 196.097656 C 128.5 201.355469 132.238281 207.515625 136.523438 212.46875 C 135.191406 211.316406 133.855469 210.128906 132.53125 208.949219 L 132.136719 208.597656 C 130.699219 207.316406 129.355469 205.929688 128.039062 204.578125 C 127.070312 203.578125 126.058594 202.539062 124.988281 201.515625 C 122.515625 199.148438 119.996094 196.59375 117.515625 194.082031 C 111.832031 188.324219 105.703125 182.117188 98.714844 176.6875 C 90.761719 170.507812 83.476562 166.230469 76.570312 163.78125 C 70.734375 161.707031 65.160156 160.957031 59.945312 161.570312 C 63.871094 160.382812 68.019531 159.941406 72.164062 160.273438 Z M 210.980469 247.515625 L 147.910156 220.296875 L 147.957031 220.203125 C 145.632812 218.941406 143.246094 217.164062 140.640625 214.746094 C 134.996094 209.519531 130.546875 201.601562 125.371094 195.085938 C 121.847656 190.644531 118.089844 185.917969 114.011719 181.375 C 108.511719 175.25 102.527344 170.183594 96.226562 166.402344 C 88.644531 161.851562 80.523438 159.121094 72.105469 158.414062 C 65.753906 157.878906 59.394531 159.054688 53.769531 161.867188 C 47.871094 164.820312 43.3125 169.332031 40.675781 174.875 L 40.675781 174.886719 L 40.667969 174.886719 C 38.113281 180.46875 37.582031 186.855469 39.113281 193.269531 C 40.570312 199.378906 43.753906 205.003906 48.25 209.523438 C 54.203125 215.503906 61.519531 219.964844 69.882812 222.84375 C 76.832031 225.238281 84.5625 226.558594 92.796875 226.832031 C 98.902344 227.03125 104.9375 226.863281 110.609375 226.707031 C 118.929688 226.484375 127.878906 224.765625 135.515625 225.722656 C 139.042969 226.164062 141.941406 226.851562 144.402344 227.816406 L 144.433594 227.75 C 161.5 236.304688 205.839844 258.523438 205.839844 258.523438 C 206.039062 258.617188 206.253906 258.648438 206.445312 258.609375 C 206.632812 258.566406 206.78125 258.457031 206.851562 258.300781 L 211.460938 248.429688 C 211.53125 248.273438 211.523438 248.089844 211.433594 247.917969 C 211.339844 247.746094 211.175781 247.601562 210.980469 247.515625 " fill-opacity="1" fill-rule="nonzero"/><path fill="#582f0e" d="M 212.792969 262.773438 L 218.707031 250.101562 C 218.878906 249.742188 218.71875 249.308594 218.355469 249.140625 L 216.074219 248.078125 C 215.714844 247.910156 215.28125 248.066406 215.113281 248.425781 L 209.195312 261.09375 C 209.027344 261.457031 209.1875 261.890625 209.550781 262.058594 L 211.832031 263.121094 C 212.195312 263.289062 212.625 263.132812 212.792969 262.773438 " fill-opacity="1" fill-rule="nonzero"/><g clip-path="url(#5bb30b4764)"><path fill="#582f0e" d="M 236.695312 266.191406 C 236.105469 267.457031 234.601562 268.003906 233.335938 267.414062 C 232.070312 266.824219 231.523438 265.324219 232.113281 264.058594 C 232.703125 262.792969 234.207031 262.246094 235.472656 262.839844 C 236.734375 263.429688 237.285156 264.929688 236.695312 266.191406 Z M 283.472656 287.984375 C 282.882812 289.246094 281.378906 289.792969 280.113281 289.207031 C 278.847656 288.617188 278.300781 287.113281 278.890625 285.847656 C 279.480469 284.582031 280.984375 284.039062 282.25 284.628906 C 283.515625 285.214844 284.0625 286.71875 283.472656 287.984375 Z M 244.117188 258.429688 C 239.320312 256.558594 234.417969 254.769531 229.675781 253.039062 L 229.035156 252.804688 C 226.820312 252 224.824219 251.273438 222.804688 250.578125 C 222.460938 250.457031 222.085938 250.621094 221.929688 250.953125 L 215.515625 264.691406 C 215.359375 265.023438 215.480469 265.414062 215.792969 265.601562 C 217.765625 266.785156 219.839844 267.976562 221.507812 268.9375 L 222.101562 269.28125 C 226.476562 271.796875 231 274.398438 235.511719 276.863281 C 236.496094 277.402344 237.480469 277.941406 238.464844 278.476562 C 247.976562 283.679688 257.8125 289.058594 267.832031 293.574219 L 268.507812 293.882812 C 274.960938 296.800781 285.765625 301.691406 291.484375 294.53125 C 292.003906 293.882812 292.492188 293.15625 292.898438 292.433594 C 292.90625 292.417969 292.914062 292.402344 292.921875 292.386719 C 292.929688 292.371094 292.9375 292.351562 292.945312 292.335938 C 293.238281 291.5625 293.476562 290.722656 293.640625 289.90625 C 295.457031 280.929688 284.765625 275.804688 278.375 272.742188 L 277.707031 272.421875 C 267.804688 267.65625 257.359375 263.585938 247.253906 259.652344 C 246.207031 259.246094 245.164062 258.835938 244.117188 258.429688 " fill-opacity="1" fill-rule="nonzero"/></g><path fill="#582f0e" d="M 139.59375 149.890625 C 140.011719 151.269531 140.28125 152.714844 140.359375 154.21875 C 143.683594 151.5625 149.128906 149.191406 155.875 147.476562 C 163.695312 145.492188 172.886719 144.441406 182.457031 144.441406 C 192.035156 144.441406 201.234375 145.496094 209.054688 147.480469 C 215.804688 149.195312 221.253906 151.570312 224.574219 154.230469 C 224.652344 152.730469 224.921875 151.28125 225.335938 149.902344 C 216.660156 144.117188 200.445312 140.492188 182.457031 140.492188 C 164.484375 140.492188 148.273438 144.113281 139.59375 149.890625 " fill-opacity="1" fill-rule="nonzero"/><path fill="#582f0e" d="M 139.59375 168.5625 C 140.011719 169.941406 140.28125 171.386719 140.359375 172.886719 C 143.683594 170.234375 149.128906 167.859375 155.875 166.148438 C 163.695312 164.164062 172.886719 163.113281 182.457031 163.113281 C 192.035156 163.113281 201.234375 164.164062 209.054688 166.152344 C 215.804688 167.867188 221.253906 170.242188 224.574219 172.902344 C 224.652344 171.398438 224.921875 169.953125 225.335938 168.574219 C 216.660156 162.789062 200.445312 159.164062 182.457031 159.164062 C 164.484375 159.164062 148.273438 162.785156 139.59375 168.5625 " fill-opacity="1" fill-rule="nonzero"/><g clip-path="url(#d795618d39)"><path fill="#582f0e" d="M 241.015625 130.09375 L 240.832031 130.1875 L 240.789062 130.21875 C 240.773438 130.226562 240.753906 130.238281 240.730469 130.246094 L 240.640625 130.296875 C 237.65625 132.015625 222.777344 141.28125 222.777344 155.113281 L 222.777344 174.433594 C 222.777344 177.816406 218.453125 181.855469 211.496094 184.964844 C 203.4375 188.574219 193.121094 190.558594 182.457031 190.558594 C 171.792969 190.558594 161.476562 188.574219 153.417969 184.964844 C 146.457031 181.855469 142.136719 177.816406 142.136719 174.433594 L 142.160156 155.113281 L 142.160156 155.085938 C 142.136719 140.625 125.894531 131.179688 124.042969 130.152344 L 123.929688 130.09375 C 113.917969 124.757812 107.699219 114.414062 107.699219 103.089844 C 107.699219 94.917969 110.886719 87.230469 116.671875 81.449219 C 122.457031 75.667969 130.144531 72.488281 138.324219 72.488281 C 141.398438 72.488281 144.417969 72.933594 147.300781 73.824219 L 148.917969 74.320312 L 149.496094 72.730469 C 151.917969 66.027344 156.28125 60.285156 162.117188 56.121094 C 168.074219 51.867188 175.109375 49.621094 182.457031 49.621094 C 189.8125 49.621094 196.847656 51.867188 202.804688 56.121094 C 208.640625 60.285156 213 66.03125 215.417969 72.738281 L 215.992188 74.332031 L 217.613281 73.832031 C 220.519531 72.941406 223.546875 72.488281 226.613281 72.488281 C 234.796875 72.488281 242.484375 75.667969 248.269531 81.449219 C 254.050781 87.230469 257.238281 94.914062 257.238281 103.089844 C 257.238281 114.410156 251.023438 124.757812 241.015625 130.09375 Z M 250.78125 78.941406 C 244.328125 72.488281 235.742188 68.9375 226.613281 68.9375 C 223.75 68.9375 220.917969 69.292969 218.167969 69.992188 C 215.414062 63.265625 210.839844 57.496094 204.871094 53.234375 C 198.308594 48.546875 190.554688 46.074219 182.457031 46.074219 C 174.363281 46.074219 166.617188 48.546875 160.050781 53.234375 C 154.078125 57.496094 149.507812 63.261719 146.75 69.980469 C 144.015625 69.289062 141.191406 68.9375 138.324219 68.9375 C 129.195312 68.9375 120.613281 72.488281 114.15625 78.941406 C 107.703125 85.394531 104.144531 93.96875 104.144531 103.089844 C 104.144531 115.738281 111.09375 127.289062 122.28125 133.238281 L 122.347656 133.273438 C 123.183594 133.738281 127.121094 136.03125 130.964844 139.789062 C 136.027344 144.738281 138.597656 149.886719 138.605469 155.089844 L 138.582031 174.433594 C 138.582031 179.382812 143.460938 184.402344 151.964844 188.207031 C 160.472656 192.011719 171.304688 194.105469 182.457031 194.105469 C 193.609375 194.105469 204.441406 192.011719 212.949219 188.207031 C 221.453125 184.402344 226.328125 179.382812 226.328125 174.433594 L 226.328125 155.113281 C 226.328125 150.09375 228.726562 145.117188 233.449219 140.3125 C 237.152344 136.550781 241.15625 134.097656 242.371094 133.398438 C 242.460938 133.351562 242.550781 133.304688 242.644531 133.25 L 242.667969 133.238281 C 253.84375 127.285156 260.789062 115.730469 260.789062 103.089844 C 260.789062 93.96875 257.234375 85.390625 250.78125 78.941406 " fill-opacity="1" fill-rule="nonzero"/></g><path fill="#582f0e" d="M 247.050781 120.925781 C 243.925781 126.765625 238.539062 129.386719 235.980469 131.476562 C 234.019531 133.078125 231.980469 134.632812 230.226562 136.464844 C 228.441406 138.324219 223.703125 145.738281 220.578125 142.34375 C 218.859375 140.476562 217.671875 137.164062 217.816406 134.1875 C 217.882812 132.867188 218.070312 130.773438 218.070312 130.773438 C 218.070312 130.773438 216.515625 132.925781 215.914062 133.5625 C 212.339844 137.335938 206.726562 139.132812 197.988281 137.964844 C 187.066406 136.503906 185.957031 128.074219 185.957031 128.074219 L 184.96875 122.242188 C 184.96875 122.242188 183.101562 127.457031 182.515625 128.765625 C 180.140625 134.085938 178.765625 136.144531 168.992188 138.65625 C 160.292969 140.890625 153.054688 139.289062 149.292969 132.949219 C 148 130.765625 146.515625 127.742188 146.515625 127.742188 L 146.753906 130.875 C 146.753906 130.875 148.324219 140.566406 143.519531 142.578125 C 143.222656 142.703125 142.921875 142.792969 142.625 142.851562 C 142.613281 142.84375 120.0625 127.566406 115.621094 109.355469 C 112.1875 95.300781 126.691406 63.789062 161.859375 87.152344 C 162.71875 87.769531 164.855469 89.195312 164.855469 89.195312 C 164.855469 89.195312 164.734375 87.925781 163.710938 86 C 161.886719 82.574219 160.539062 80.507812 157.945312 77.675781 C 157.636719 77.335938 154.03125 73.707031 153.550781 73.609375 C 153.554688 73.605469 153.546875 73.613281 153.550781 73.609375 C 153.601562 73.507812 153.109375 73.433594 155.011719 70.699219 C 163.179688 58.960938 185.167969 53.285156 199.332031 62.042969 C 204.046875 64.957031 209.527344 69.46875 211.84375 74.542969 C 214.441406 80.234375 215.792969 84.03125 214.417969 91.058594 C 214.046875 92.984375 212.488281 97.253906 212.488281 97.253906 C 212.488281 97.253906 214.625 94.832031 215.238281 94.082031 C 217.207031 91.691406 217.589844 90.753906 219.78125 88.503906 C 224.390625 83.78125 232.027344 83.566406 237.550781 86.59375 C 240.277344 88.09375 242.644531 90.042969 244.664062 92.410156 C 250.847656 99.652344 252.449219 110.855469 247.050781 120.925781 Z M 259.179688 103.621094 C 258.773438 100.101562 257.554688 87.246094 251.050781 81.761719 C 244.546875 76.28125 240.300781 71.621094 229.234375 70.804688 C 222.792969 70.332031 219.894531 70.804688 218.59375 71.28125 C 218.582031 71.21875 218.570312 71.164062 218.558594 71.105469 C 217.921875 71.230469 217.292969 71.375 216.671875 71.539062 C 216.167969 69.378906 215.40625 67.378906 214.304688 65.84375 C 210.851562 61.03125 203.035156 49.136719 184.679688 47.867188 C 166.320312 46.597656 151.144531 62.390625 149.144531 68.660156 C 148.9375 69.3125 148.769531 70.039062 148.71875 70.75 C 148.515625 70.644531 148.386719 70.582031 148.382812 70.601562 C 148.101562 71.203125 147.835938 71.8125 147.585938 72.429688 C 139.789062 69.226562 127.710938 71.015625 120.949219 75.578125 C 113.078125 80.882812 107.589844 88.117188 105.964844 101.542969 C 104.347656 114.96875 114.5625 125.253906 118.828125 129.308594 C 121.210938 131.578125 129.902344 134.171875 133.828125 139.46875 C 134.316406 140.132812 134.792969 140.699219 135.253906 141.183594 L 138.019531 148.082031 L 141.375 150.492188 L 139.804688 151.445312 L 140.75 169.394531 L 145.449219 166.035156 L 145.449219 149.730469 L 144.878906 149.476562 L 158.113281 144.515625 L 178.9375 142.730469 L 201.589844 144.007812 L 219.402344 149.117188 L 221.019531 149.601562 C 218.402344 156.472656 219.117188 165.304688 219.117188 165.304688 L 225.335938 170.457031 L 225.335938 149.230469 L 226.578125 145.339844 C 226.578125 145.339844 229.152344 142.792969 230.074219 140.492188 C 233.289062 139.15625 239.449219 134.136719 253.625 121.355469 C 258.039062 117.371094 259.585938 107.140625 259.179688 103.621094 " fill-opacity="1" fill-rule="nonzero"/></svg>